<svg width="65" height="65" viewBox="0 0 65 65" fill="none" xmlns="http://www.w3.org/2000/svg">
<g id="Group">
<path id="Vector" d="M54.5156 37.7402H56.6124V39.8369H54.5156V37.7402ZM54.5156 46.1269H56.6124V48.2236H54.5156V46.1269ZM54.5156 54.5136H56.6124V56.6103H54.5156V54.5136Z" fill="#28B446"/>
<path id="Vector_2" d="M62.9032 29.3534H58.2033C57.6684 26.8999 56.5097 24.6259 54.839 22.751C54.1015 21.9176 53.2188 21.2249 52.2338 20.7068C53.2102 20.0329 54.0085 19.1321 54.5601 18.0818C55.1118 17.0315 55.4003 15.8631 55.401 14.6767V13.6284H50.159C47.4877 13.6284 45.153 15.0678 43.8687 17.2064V14.6767C43.8687 12.3641 45.7495 10.4834 48.0623 10.4834V8.3867C44.5931 8.3867 41.7719 11.2078 41.7719 14.6767V20.4939C40.2506 19.9391 38.5981 19.8517 37.0267 20.2428C35.4552 20.634 34.0366 21.4859 32.9529 22.6892C32.6835 22.989 32.4308 23.3003 32.1886 23.619L32.2798 23.1819C32.4256 22.4795 32.5 21.7593 32.5 20.9667C32.5001 19.565 32.218 18.1776 31.6706 16.8872C31.1233 15.5967 30.3218 14.4297 29.314 13.4554L32.9896 8.04599C33.2484 7.66302 33.4226 7.22924 33.5004 6.77361C33.5783 6.31798 33.5581 5.85099 33.4411 5.4038C33.3241 4.95662 33.113 4.53953 32.822 4.18039C32.531 3.82125 32.1668 3.52831 31.7535 3.32113L31.4915 3.19009C30.7167 2.80221 29.8371 2.73931 29.0141 3.01397C28.5463 3.1689 28.12 3.42844 27.7676 3.77286C27.4151 4.11728 27.1459 4.53751 26.9802 5.00162L24.8426 10.8807C24.6973 10.8398 24.5512 10.802 24.4044 10.7675L25.1445 3.35678C25.1874 2.93302 25.1411 2.50497 25.0085 2.10021C24.8759 1.69545 24.6599 1.32295 24.3746 1.00671C24.0893 0.690478 23.7408 0.437517 23.3518 0.264127C22.9627 0.0907367 22.5417 0.00076227 22.1157 0H21.9176C21.4921 0.000571294 21.0715 0.0901449 20.6828 0.262964C20.294 0.435782 19.9457 0.688023 19.6603 1.00347C19.3748 1.31892 19.1585 1.6906 19.0253 2.09463C18.8921 2.49865 18.8449 2.92608 18.8867 3.34944L19.6279 10.7696C19.4801 10.8042 19.3344 10.8419 19.1897 10.8828L17.0531 5.00476C17.0082 4.88089 16.956 4.75977 16.8969 4.64204C16.707 4.26003 16.4433 3.91945 16.1211 3.64C15.7988 3.36055 15.4243 3.14777 15.0192 3.01397C14.6152 2.8779 14.1881 2.82341 13.7629 2.85364C13.3376 2.88387 12.9226 2.99823 12.5419 3.19009L12.2798 3.32113C11.8668 3.52885 11.5028 3.8222 11.2121 4.18163C10.9214 4.54107 10.7106 4.95832 10.5939 5.4056C10.4771 5.85288 10.457 6.31991 10.535 6.77556C10.6129 7.23121 10.787 7.66503 11.0458 8.04809L14.7235 13.4607C13.4499 14.6996 12.5099 16.2402 11.9907 17.9395C11.4715 19.6388 11.3899 21.4416 11.7535 23.1808L13.0398 29.3534H11.5323C10.3759 29.3534 9.43549 30.2938 9.43549 31.4501V31.534C9.08847 31.4811 8.73811 31.4531 8.3871 31.4501H3.14516V32.4985C3.14584 33.6848 3.43438 34.8533 3.98603 35.9035C4.53768 36.9538 5.33595 37.8546 6.31234 38.5285C5.32676 39.0462 4.44389 39.7393 3.7071 40.5738C1.31744 43.2578 -0.00195795 46.7266 2.18087e-06 50.3202C2.18087e-06 54.3479 1.59879 58.1041 4.50178 60.8979C5.92285 62.2747 7.60972 63.3474 9.45932 64.0503C11.3089 64.7533 13.2824 65.0718 15.2593 64.9864C18.9905 64.8428 22.3841 63.2672 24.9076 60.8046H55.5645C58.4549 60.8046 60.8065 58.4532 60.8065 55.5629V35.6435H62.9032C64.0596 35.6435 65 34.7031 65 33.5468V31.4501C65 30.2938 64.0596 29.3534 62.9032 29.3534ZM50.159 15.7251H53.1983C52.955 16.908 52.3114 17.971 51.3758 18.7348C50.4403 19.4986 49.27 19.9166 48.0623 19.9184H45.023C45.2661 18.7354 45.9097 17.6723 46.8453 16.9084C47.7809 16.1446 48.9512 15.7266 50.159 15.7251ZM34.5108 24.0908C36.2186 22.1933 39.044 21.5674 41.3819 22.5676C41.5077 22.621 41.6409 22.663 41.7719 22.708V24.9462C40.7309 24.5584 39.7423 23.7417 39.3669 23.3685L37.8856 24.8529C38.1309 25.0993 40.3598 27.2568 42.8203 27.2568C45.2809 27.2568 47.5098 25.0993 47.7551 24.8529L46.2737 23.3685C45.8984 23.7407 44.9098 24.5573 43.8687 24.9462V22.0151H48.0623C48.4177 22.0151 48.7636 21.9815 49.1054 21.9323C50.5742 22.0371 52.1279 22.859 53.2727 24.1443C54.5993 25.6347 55.5501 27.4208 56.0457 29.3534H31.6917C32.1931 27.3975 33.1603 25.5919 34.5108 24.0908ZM28.9512 5.71658C28.9683 5.66948 28.9886 5.62359 29.012 5.57925C29.1494 5.30459 29.3842 5.10016 29.6767 5.00267C29.9702 4.90517 30.2795 4.92823 30.5542 5.06557L30.8163 5.19661C30.9628 5.26979 31.092 5.37345 31.1951 5.50063C31.2983 5.6278 31.3731 5.77557 31.4145 5.934C31.4559 6.09244 31.4629 6.2579 31.4352 6.41929C31.4074 6.58068 31.3454 6.73426 31.2535 6.86976L27.6659 12.1492C27.3837 11.9677 27.0929 11.7998 26.7947 11.646L28.9512 5.71658ZM20.9677 3.04542C20.9677 2.5223 21.3934 2.09667 21.9165 2.09667H22.1147C22.6378 2.09667 23.0635 2.5223 23.0582 3.13977L22.3223 10.4991C22.2206 10.496 22.1199 10.4834 22.0161 10.4834C21.9123 10.4834 21.8117 10.496 21.709 10.4991L20.9677 3.04542ZM12.7809 6.8729C12.6885 6.73739 12.6261 6.58368 12.598 6.42208C12.5698 6.26049 12.5766 6.09474 12.6178 5.93597C12.659 5.7772 12.7337 5.62909 12.8369 5.50156C12.94 5.37404 13.0693 5.27006 13.216 5.19661L13.4781 5.06557C13.7517 4.92928 14.0631 4.90517 14.3556 5.00267C14.5231 5.05862 14.6757 5.15212 14.8016 5.27603C14.9275 5.39995 15.0235 5.55099 15.0821 5.71763L17.2386 11.6481C16.9406 11.8016 16.6502 11.9696 16.3685 12.1513L12.7809 6.8729ZM22.0161 12.58C26.6406 12.58 30.4032 16.3425 30.4032 21.0422C30.4032 21.6157 30.3435 22.1912 30.2271 22.7531L28.8516 29.3534H17.1747C17.9117 28.7087 18.8647 28.3051 19.9194 28.3051V26.2084C18.9775 26.2087 18.0477 26.4209 17.199 26.8292C16.3502 27.2375 15.6041 27.8315 15.016 28.5672L13.8041 22.7531C13.6845 22.1653 13.6258 21.5666 13.629 20.9667C13.629 16.3425 17.3917 12.58 22.0161 12.58ZM11.5323 31.4501H13.7234C13.6657 31.7919 13.629 32.141 13.629 32.4985V33.6632C13.0234 33.0458 12.3136 32.5401 11.5323 32.1693V31.4501ZM8.3871 33.5468C9.59493 33.5484 10.7653 33.9663 11.7009 34.7302C12.6364 35.494 13.28 36.5571 13.5231 37.7402H10.4839C9.27604 37.7386 8.10569 37.3206 7.17011 36.5568C6.23453 35.7929 5.59093 34.7299 5.34782 33.5468H8.3871ZM15.1785 62.8908C11.7 63.0156 8.44371 61.7796 5.95589 59.3862C4.73092 58.2161 3.75703 56.8089 3.09357 55.2502C2.4301 53.6916 2.09095 52.0142 2.09678 50.3202C2.09508 47.2403 3.22522 44.2672 5.27234 41.966C6.41718 40.6797 7.97089 39.8578 9.44073 39.754C9.7825 39.8033 10.1285 39.8368 10.4839 39.8368H13.629V42.768C12.588 42.3801 11.5994 41.5634 11.224 41.1902L9.74266 42.6747C9.98799 42.921 12.2169 45.0785 14.6774 45.0785C17.138 45.0785 19.3669 42.921 19.6122 42.6747L18.1308 41.1902C17.7555 41.5624 16.7669 42.379 15.7258 42.768V40.794C16.22 40.7184 16.7031 40.5825 17.1642 40.3893C19.501 39.3871 22.3275 40.0161 24.0343 41.9125C26.2472 44.3648 27.4015 47.5921 27.2455 50.8915C26.9593 57.3703 21.6576 62.6403 15.1785 62.8908ZM29.3381 50.3202C29.3467 48.1457 28.8696 45.9967 27.9416 44.0302H58.7097V50.3202H29.3381ZM55.5645 58.7069H26.6951C28.0137 56.8363 28.8732 54.6815 29.2039 52.4169H58.7097V55.5619C58.7097 57.2958 57.2985 58.7069 55.5645 58.7069ZM62.9032 33.5468H58.7097V41.9335H26.7077C26.3657 41.4369 25.9935 40.9618 25.5932 40.5109C24.4577 39.2465 22.9548 38.3691 21.2955 38.0017C19.6361 37.6343 17.9034 37.7955 16.3402 38.4625C16.141 38.541 15.9359 38.6037 15.7269 38.6501V35.6435H56.614V33.5468H15.7258V32.4985C15.7258 32.1347 15.7866 31.7877 15.8747 31.4501H62.9032V33.5468Z" fill="#28B446"/>
<path id="Vector_3" d="M6.29013 50.3202H4.19336C4.19336 56.1008 8.89642 60.8036 14.6772 60.8036V58.7069C10.0528 58.7069 6.29013 54.9444 6.29013 50.3202ZM25.1611 16.7734H27.2579V18.8701H25.1611V16.7734ZM25.1611 20.9668H27.2579V23.0635H25.1611V20.9668ZM25.1611 25.1601H27.2579V27.2568H25.1611V25.1601Z" fill="#28B446"/>
</g>
</svg>
